<svg xmlns="http://www.w3.org/2000/svg" xmlns:xlink="http://www.w3.org/1999/xlink" version="1.1" x="0px" y="0px" width="100px" height="100px" viewBox="0 0 100 100" enable-background="new 0 0 100 100" xml:space="preserve">
<g id="Captions">
</g>
<g id="Your_Icon">
	<path d="M85.898,79.679c3.041-4.604,1.571-9.818-2.739-10.988c-6.596-1.8-6.412-9.908,1.456-13.982   c28.965-15.023,12.818-49.23-14.124-49.23c-15.563,0-29.097,8.213-36.116,20.677L66.92,59.959c5.124,0.118,9.246,4.302,9.246,9.459   c0,0.049-0.004,0.094-0.004,0.145c-0.022,1.447-0.374,2.81-0.977,4.028c-0.859,1.749-2.233,3.191-3.938,4.128   c-1.159,0.64-2.474,1.032-3.862,1.128c-0.229,0.018-0.457,0.036-0.686,0.036c-5.233,0-9.465-4.237-9.465-9.465   c0-0.11,0.014-0.217,0.014-0.325L29.43,42.31c-0.101,1.156-0.161,2.325-0.161,3.512c0,0.694,0.019,1.388,0.051,2.082   c0.014,0.225,0.037,0.452,0.056,0.677c0.026,0.465,0.054,0.922,0.1,1.383c0.028,0.271,0.068,0.544,0.101,0.812   c0.045,0.412,0.09,0.827,0.155,1.23c0.04,0.291,0.09,0.575,0.141,0.857c0.068,0.389,0.132,0.775,0.206,1.165   c0.06,0.291,0.127,0.579,0.192,0.872c0.077,0.375,0.159,0.748,0.254,1.123c0.068,0.293,0.152,0.584,0.229,0.877   c0.101,0.364,0.192,0.73,0.302,1.086c0.087,0.293,0.183,0.585,0.274,0.872c0.115,0.357,0.229,0.708,0.352,1.064   c0.101,0.287,0.206,0.575,0.314,0.859c0.129,0.347,0.262,0.694,0.394,1.032l0.356,0.85c0.146,0.336,0.293,0.675,0.443,1.008   c0.124,0.279,0.254,0.553,0.387,0.826c0.16,0.33,0.321,0.657,0.49,0.987c0.142,0.269,0.277,0.539,0.424,0.804   c0.174,0.324,0.353,0.644,0.53,0.959c0.155,0.266,0.307,0.525,0.457,0.785c0.191,0.311,0.383,0.621,0.584,0.931   c0.155,0.257,0.319,0.508,0.485,0.754c0.201,0.307,0.41,0.608,0.621,0.908c0.173,0.248,0.342,0.485,0.516,0.728   c0.224,0.296,0.443,0.589,0.671,0.881c0.178,0.228,0.356,0.465,0.539,0.69c0.237,0.287,0.474,0.575,0.72,0.863   c0.183,0.209,0.366,0.432,0.558,0.646c0.251,0.284,0.511,0.558,0.767,0.832c0.192,0.206,0.378,0.411,0.576,0.612   c0.273,0.273,0.547,0.547,0.83,0.812c0.192,0.187,0.38,0.378,0.575,0.556c0.296,0.279,0.604,0.55,0.909,0.814   c0.188,0.164,0.372,0.328,0.558,0.488c0.338,0.288,0.688,0.562,1.036,0.836c0.166,0.127,0.319,0.265,0.494,0.389   c0.457,0.351,0.922,0.684,1.398,1.008c0.06,0.047,0.119,0.093,0.182,0.138c0.539,0.364,1.086,0.722,1.639,1.059   c0.132,0.082,0.279,0.155,0.415,0.239c0.422,0.251,0.84,0.497,1.27,0.729c0.206,0.109,0.417,0.211,0.623,0.321   c0.369,0.191,0.739,0.383,1.114,0.556c0.237,0.115,0.475,0.22,0.711,0.321c0.356,0.164,0.708,0.319,1.069,0.466   c0.257,0.104,0.517,0.2,0.776,0.3c0.347,0.129,0.693,0.265,1.041,0.384c0.273,0.098,0.547,0.183,0.821,0.265   c0.349,0.109,0.693,0.225,1.046,0.324c0.279,0.078,0.572,0.151,0.854,0.225c0.348,0.086,0.694,0.179,1.05,0.255   c0.293,0.064,0.584,0.119,0.877,0.178c0.356,0.07,0.703,0.138,1.059,0.197c0.302,0.046,0.604,0.087,0.905,0.127   c0.355,0.051,0.712,0.093,1.072,0.133c0.308,0.033,0.612,0.056,0.918,0.079c0.362,0.027,0.722,0.05,1.088,0.062   c0.311,0.019,0.62,0.027,0.935,0.027c0.183,0.009,0.362,0.02,0.549,0.02c0.232,0,0.466-0.011,0.699-0.02   c0.188,0,0.37-0.003,0.557-0.009c0.635-0.027,1.27-0.059,1.909-0.118c1.68-0.155,3.214-0.411,4.621-0.75   c1.389-0.328,2.647-0.739,3.781-1.214c1.882-0.781,3.434-1.734,4.666-2.79C84.522,81.462,85.3,80.582,85.898,79.679z    M81.486,87.705l9.544,8.887l4.288-3.891l-8.576-9.183C85.532,85.148,83.204,86.864,81.486,87.705z M58.234,65.192   c0.005-0.009,0.009-0.009,0.009-0.014l9.699,9.34c1.745-0.959,3.159-2.448,4.042-4.239l-9.146-9.497   c0.004-0.005,0.009-0.011,0.009-0.011L32.713,29.47l-2.609-2.708l-3.296-3.425c-0.164-0.164-0.324-0.316-0.485-0.457   c-0.073-0.064-0.146-0.113-0.214-0.173c-0.087-0.069-0.178-0.146-0.265-0.211c-0.077-0.064-0.159-0.11-0.232-0.164   c-0.079-0.051-0.155-0.11-0.237-0.155c-0.073-0.051-0.151-0.093-0.23-0.133c-0.072-0.042-0.15-0.087-0.223-0.124   c-0.077-0.04-0.15-0.068-0.223-0.1c-0.073-0.033-0.146-0.07-0.229-0.101c-0.028-0.009-0.064-0.018-0.1-0.028   c-0.394,1.156-1.043,2.248-1.969,3.17c-0.9,0.898-1.978,1.561-3.147,1.963c0.27,0.762,0.792,1.569,1.645,2.418l9.124,8.788   L58.234,65.192z M21.082,14.862c-0.219-1.43-0.858-2.804-1.955-3.91c0,0-0.026-0.026-0.077-0.082   c-0.009-0.014-0.033-0.037-0.042-0.051c-0.045-0.05-0.104-0.113-0.183-0.195c-0.035-0.047-0.091-0.101-0.132-0.141   c-0.073-0.079-0.145-0.152-0.237-0.248c-0.059-0.059-0.141-0.136-0.214-0.206c-0.1-0.096-0.192-0.187-0.302-0.292   c-0.091-0.082-0.192-0.174-0.286-0.256c-0.124-0.11-0.244-0.22-0.38-0.338c-0.11-0.09-0.237-0.192-0.353-0.288   c-0.15-0.119-0.296-0.242-0.452-0.364c-0.138-0.105-0.282-0.211-0.429-0.316c-0.173-0.127-0.342-0.256-0.53-0.384   c-0.155-0.11-0.319-0.22-0.488-0.328c-0.197-0.132-0.389-0.262-0.598-0.394c-0.183-0.108-0.375-0.223-0.567-0.333   c-0.218-0.127-0.438-0.251-0.675-0.384c-0.202-0.104-0.412-0.214-0.621-0.324c-0.248-0.119-0.494-0.241-0.75-0.359   c-0.223-0.106-0.457-0.206-0.684-0.307C10.853,5.25,10.579,5.14,10.301,5.03c-0.248-0.092-0.499-0.183-0.755-0.273   C9.255,4.66,8.958,4.559,8.652,4.468C8.387,4.387,8.113,4.313,7.839,4.235C7.52,4.153,7.199,4.076,6.871,4.003   c-0.293-0.064-0.584-0.124-0.88-0.174C5.652,3.766,5.3,3.71,4.953,3.665c-0.311-0.045-0.621-0.087-0.94-0.115   C3.647,3.509,3.277,3.49,2.897,3.467c-0.323-0.022-0.656-0.037-0.994-0.04c-0.146,0-0.279-0.019-0.426-0.019   c-0.479,0-0.959,0.014-1.456,0.042c8.072,4.799,4.457,10.433,8.603,16.786c0.118,0.15,0.248,0.296,0.38,0.438   c0.122,0.143,0.192,0.211,0.192,0.211c1.105,1.109,2.488,1.749,3.922,1.958c0.347,0.056,0.694,0.101,1.041,0.101   c0.133,0,0.265-0.028,0.401-0.037c0.166-0.009,0.334-0.028,0.504-0.05c0.254-0.032,0.502-0.077,0.753-0.138   c0.251-0.059,0.497-0.13,0.744-0.223c0.127-0.04,0.255-0.082,0.378-0.141c0.338-0.141,0.667-0.315,0.982-0.516   c0.077-0.045,0.155-0.101,0.229-0.155c0.336-0.234,0.671-0.494,0.977-0.799C20.771,19.246,21.406,16.995,21.082,14.862z"/>
</g>
</svg>