<svg xmlns="http://www.w3.org/2000/svg" xmlns:xlink="http://www.w3.org/1999/xlink" version="1.1" id="Layer_1" x="0px" y="0px" width="100px" height="91.6666666667px" viewBox="0 0 108.121 99.421" enable-background="new 0 0 108.121 99.421" xml:space="preserve">
<polygon points="100.611,37.896 96.21,39.787 96.038,39.866 92.07,41.573 89.93,42.494 80.64,46.475 53.786,58.009 26.918,46.475   11.521,39.866 11.349,39.787 6.948,37.896 53.786,21.039 "/>
<polygon points="82.546,49.338 82.546,61.491 53.786,73.774 25.066,61.368 25.066,49.214 53.786,61.622 "/>
<polygon points="89.93,45.976 92.07,45.056 92.07,72.279 89.93,72.279 "/>
<polygon points="95.004,77.999 86.997,77.999 89,74.535 89.628,73.454 92.374,73.454 93.001,74.535 "/>
</svg>